<svg width="58" height="58" viewBox="0 0 58 58" fill="none" xmlns="http://www.w3.org/2000/svg">
<path d="M0 9C0 7.34315 1.34315 6 3 6H20C20 2.68629 22.6863 0 26 0C29.3137 0 32 2.68629 32 6H49C50.6569 6 52 7.34315 52 9V26C55.3137 26 58 28.6863 58 32C58 35.3137 55.3137 38 52 38V55C52 56.6569 50.6569 58 49 58H32C32 56.4087 31.3674 54.883 30.2422 53.7578C29.117 52.6326 27.5913 52 26 52C24.4087 52 22.883 52.6326 21.7578 53.7578C20.6326 54.883 20 56.4087 20 58H3C1.34315 58 0 56.6569 0 55L0 38C1.5913 38 3.11697 37.3674 4.24219 36.2422C5.36741 35.117 6 33.5913 6 32C6 30.4087 5.36741 28.883 4.24219 27.7578C3.11697 26.6326 1.5913 26 0 26L0 9Z" fill="#ABC4FF"/>
</svg>
