<svg width="73" height="58" viewBox="0 0 73 58" fill="none" xmlns="http://www.w3.org/2000/svg">
<path d="M53.6504 0C56.0525 0.000210131 57.9998 1.94748 58 4.34961V37.7002H68.1504C70.5526 37.7004 72.4999 39.6476 72.5 42.0498V53.6504C72.4998 56.0525 70.5525 57.9998 68.1504 58H56.5498C54.1476 57.9999 52.2004 56.0526 52.2002 53.6504V42.0498C52.2002 41.5412 52.2878 41.0532 52.4482 40.5996H20.0518C20.2122 41.0532 20.2998 41.5412 20.2998 42.0498V53.6504C20.2996 56.0526 18.3524 57.9999 15.9502 58H4.34961C1.94748 57.9998 0.000210131 56.0525 0 53.6504V42.0498C0.000106293 39.6476 1.94742 37.7004 4.34961 37.7002H15.9502C16.4588 37.7002 16.9468 37.7878 17.4004 37.9482V24.6504C17.4004 22.248 19.3476 20.2998 21.75 20.2998H37.7002V4.34961C37.7004 1.94742 39.6476 0.000106293 42.0498 0H53.6504ZM55.666 4.40527C55.1035 4.29339 54.5201 4.35088 53.9902 4.57031C53.4603 4.78981 53.0071 5.16177 52.6885 5.63867C52.3698 6.11557 52.2002 6.67643 52.2002 7.25C52.2002 7.82357 52.3698 8.38443 52.6885 8.86133C53.0071 9.33823 53.4603 9.71019 53.9902 9.92969C54.5201 10.1491 55.1035 10.2066 55.666 10.0947C56.2284 9.98283 56.7449 9.70621 57.1504 9.30078L55.0996 7.25L57.1504 5.19922C56.7449 4.79379 56.2284 4.51717 55.666 4.40527Z" fill="#ABC4FF"/>
</svg>
