<svg width="76" height="76" viewBox="0 0 76 76" fill="none" xmlns="http://www.w3.org/2000/svg">
<path d="M75.6485 32.8993L71.2736 31.6979V31.6456H71.0132C70.7528 30.0786 70.3882 28.616 70.1278 27.4146V27.3624V26.84L73.3569 23.0269C72.0028 20.0495 70.3882 17.1765 68.5654 14.7215L68.5133 14.6692L63.7739 15.8707C62.8364 14.7737 61.5864 13.6245 60.2844 12.4754L61.4302 7.82645C58.8782 5.89375 56.1179 4.22223 52.5242 2.81189L49.0869 6.10269C47.6286 5.63258 46.0141 5.16246 44.1912 4.74458L42.8371 0.356838C40.1288 -0.00880774 37.0039 -0.217748 32.8895 0.356838L31.5875 4.74458C30.025 5.00576 28.4105 5.47587 27.0043 5.94599L23.1502 2.86412C20.0254 4.17 17.1609 5.63258 14.1922 7.87869L15.2859 12.4231C14.1922 13.3634 12.9423 14.617 11.9006 15.7662L7.31746 14.6692C5.4946 17.1243 3.88008 19.8405 2.47387 23.0269L5.70293 26.84C5.2342 28.3026 4.81754 29.8696 4.50505 31.6456L0.390612 32.8993C-0.130204 36.3468 -0.130204 39.4809 0.390612 42.9284L4.45297 44.1821V44.2865L4.50505 44.2343C4.81754 46.0103 5.2342 47.4729 5.70293 48.7787L2.52596 52.4352C3.88008 55.5171 5.54669 58.4422 7.31746 61.054L11.9006 60.1137C12.9943 61.3674 14.2964 62.5166 15.2859 63.3523L14.1922 67.8968C16.6401 69.9339 19.5566 71.3965 23.1502 73.068L26.6918 69.8295C28.2542 70.2996 29.9209 70.7697 31.5354 71.0831L32.8895 75.6276C36.4831 76.0977 39.1914 76.1499 42.8892 75.6276L44.1912 71.0831C46.0141 70.7697 47.6286 70.2996 49.1389 69.8295L52.4722 73.068C55.9095 71.6055 58.8782 69.9862 61.326 68.0535L61.4302 67.949L60.2844 63.3523C61.4823 62.3076 62.6281 61.1584 63.7218 60.1137L68.6174 61.2107C70.3882 58.7556 72.0027 55.8305 73.3048 52.9053H73.3569L70.1278 49.2489V48.7787C70.5965 47.5251 70.909 46.0103 71.3257 44.2865L75.6485 42.9806C76.1172 39.951 76.1172 36.3468 75.6485 32.8993ZM22.4211 58.39C21.1191 58.7556 20.2337 58.5989 19.0879 57.6587C16.1713 54.8902 10.6507 48.5176 10.6507 37.9138C10.6507 29.2428 15.1818 22.4 18.9316 18.6391C20.0254 17.5944 21.067 17.0721 22.5253 17.7511L24.244 20.4151L23.2544 21.1986L20.7024 19.1092L20.2337 19.4749L22.2128 21.9822L21.3795 22.8701L18.6192 21.1986L18.3067 21.5643L20.4941 23.9671L19.7129 25.064L16.8484 23.3925L16.4838 23.8626L18.9837 26.2654L18.3587 27.4146L15.2859 26.2654L15.0255 26.7355L17.8379 28.6682L17.3692 29.8696L14.0881 29.0861L13.8277 29.6085L16.8484 31.1233L16.4838 32.3247L13.1506 31.9591L12.9943 32.4814L16.1713 33.5783L15.963 34.832H12.6298L12.5256 35.3021L15.7547 36.0856L15.7026 37.287L12.4215 37.6527V38.2273L15.7547 38.5407V39.7943L12.5777 40.5778L12.6298 41.1002C12.6298 41.1002 15.4943 40.9957 15.9109 41.1002L16.1713 42.3538L13.0464 43.3985L13.1506 43.9209L16.4838 43.6075L16.8484 44.7566L13.8277 46.1148L14.036 46.6893L17.3692 45.9058L17.89 47.055L14.9734 48.831L15.2339 49.3011L18.4629 48.2042L18.9837 49.2489L16.4317 51.5472L16.7963 52.0695L19.6608 50.5025L20.4941 51.495L18.2546 53.8978L18.5671 54.4724L21.3274 52.5919L22.1607 53.4799L20.1816 56.2484L20.6503 56.7185L23.1502 54.4201L24.1398 55.3081L22.4211 58.39ZM19.817 37.9138C19.817 32.2725 22.6294 27.6758 26.9001 23.3403C28.5147 26.0043 32.1083 32.3247 32.8374 33.8917C33.6186 35.5633 33.827 38.8018 32.4208 42.0404L26.796 52.0173C23.7231 49.6145 19.817 44.9656 19.817 37.9138ZM37.8893 64.9194C35.9623 64.9194 33.3062 64.7104 31.1187 63.9791C29.7125 63.509 28.5667 62.2554 28.6709 60.4794L29.8167 58.5989L31.0146 59.0168L30.4937 62.0464L31.0146 62.2031L32.3166 59.3825L33.4624 59.5914L33.3062 62.7255L33.827 62.83L34.7124 59.9048L35.8582 60.0093L36.1186 63.1434H36.6915L37.2123 60.1137H38.4101L38.931 63.1434H39.4518L39.7122 60.0615L40.8059 59.9048L41.7954 62.8822L42.3163 62.83L42.2121 59.6959L43.41 59.4869L44.8162 62.2554L45.2849 62.0987L44.7641 59.069L45.962 58.7556L47.6286 61.3152L48.0973 61.1584L47.2119 58.2333L48.2536 57.7109L50.2847 60.1137L50.7014 59.9048L49.4514 57.0841L50.5451 56.3528L52.7326 58.6512L53.1492 58.39L51.5868 55.5171L52.6284 54.5246L55.0242 56.7185L55.4929 56.3528L53.4096 53.5844L54.3992 52.6441L57.2116 54.4724L57.5241 54.0022L55.0762 51.6517L55.9095 50.5025L58.9824 52.0695L59.2948 51.5472L56.6387 49.3011L57.4199 48.1519L60.4406 49.3533L60.649 48.831L57.9407 47.055L58.3574 45.958L61.5864 46.6893L61.7427 46.167L58.8261 44.7566L59.1907 43.5552L62.4718 43.9731L62.576 43.3985L59.5032 42.3538L59.7115 41.048H62.9406C63.6697 41.3614 64.5551 42.5628 64.2947 43.9731C61.951 54.8902 51.8472 64.9194 37.8893 64.9194ZM37.9935 56.0394C36.2227 56.0394 33.4624 55.6738 31.6395 54.8902L37.1081 45.3835C38.6185 43.0329 41.6392 40.5778 45.5453 40.5256H55.6491C54.92 47.2117 48.7223 55.6738 37.9935 56.0394ZM35.7019 37.9138C35.7019 36.9214 36.6915 35.8244 37.7331 35.8244C38.931 35.8244 39.7643 36.7647 39.7643 37.9138C39.7643 38.9063 38.931 39.8988 37.7852 39.8988C36.6394 39.8988 35.7019 38.8541 35.7019 37.9138ZM44.2433 35.1454C41.535 35.0932 39.4518 33.9962 37.3164 31.4889C36.5352 30.5487 33.202 24.5939 31.5354 20.833C33.202 20.1539 35.3894 19.6316 37.8893 19.6316C46.2224 19.6316 54.4513 26.161 55.7012 35.2499L44.2433 35.1454ZM62.8885 34.623L59.7115 34.7797L59.5553 33.5261C59.5553 33.3694 62.6281 32.4292 62.6281 32.4292L62.4718 31.9068L59.2428 32.3247L58.8782 31.1755C59.0865 30.8099 61.7427 29.6085 61.7427 29.6085L61.5864 29.0339L58.4615 29.8174L57.9928 28.6682L60.649 26.6833L60.3886 26.2132L57.4199 27.3624L56.7429 26.2654L59.2428 23.8626L58.9824 23.3925L55.9616 25.0118L55.1283 23.9671L57.5762 21.5643L57.2637 21.1986L54.3992 22.8701L53.4096 21.9299L55.4408 19.4226L55.0762 19.057L52.6284 21.1986L51.5868 20.3629L53.1492 17.6989L52.7326 17.281L50.4931 19.6316L49.3994 18.9003L50.7014 16.0274L50.2847 15.7139L48.2536 18.2735L47.2119 17.8033L48.0452 14.6692L47.6286 14.4081L45.962 17.281L44.7641 16.8631L45.2328 13.6245L44.7641 13.4678L43.41 16.4975L42.16 16.2363L42.3163 12.8933L41.8475 12.7888L40.8059 16.0274L39.6601 15.8707L39.4518 12.5276L38.983 12.4754L38.4101 15.8184H37.2123L36.6915 12.5276L36.1186 12.5798L35.9102 15.9229L34.7124 16.0274L33.7749 12.841L33.3062 12.9455L33.4624 16.2885L32.2645 16.5497L30.9625 13.5723L30.4417 13.6768L31.0146 16.9676L29.8167 17.3332L28.6709 15.4528C28.4105 13.8857 29.4521 12.3187 31.1187 11.7441C32.9416 11.274 35.0769 10.8039 37.8893 10.8039C51.5347 10.8039 61.7427 20.1539 64.2947 30.8621C64.8155 32.8993 63.7739 34.1529 62.8885 34.623Z" fill="#ABC4FF"/>
</svg>
