<svg width="290" height="290" viewBox="0 0 290 290" fill="none" xmlns="http://www.w3.org/2000/svg">
<path d="M165 184.5V149.5C165 147.1 163 146.167 162 146H129C125.8 146 124.381 148.333 124.071 149.5V184.5C124.071 185.667 122.752 188.223 118.104 190.5C113 193 80.9745 211.667 65.3934 221C64.5647 221.333 62.6087 221.5 61.4153 219.5C60.2219 217.5 56.6084 211.333 54.9508 208.5C54.4535 207.333 54.2547 204.6 57.4372 203C60.6197 201.4 82.3006 189 92.7432 183C93.5719 182.167 95.0306 180.1 94.235 178.5C93.4393 176.9 91.9144 176.167 91.2514 176H47.9891C47.326 176 46 175.6 46 174V159.389C46 158.593 46.3978 157 47.9891 157H90.3705C91.6587 157 94.235 156.3 94.235 153.5C94.235 150.7 91.2514 149 89.7596 148.5L55.4481 128.5C54.9508 128.167 54.2547 127 55.4481 125C56.6415 123 60.918 115.5 62.9071 112C63.2386 111.667 64.3989 111.3 66.388 112.5C68.377 113.7 105.341 135.333 123.574 146L89.7596 87.4999C89.2623 86.8333 88.8645 85.1999 91.2514 83.9999C93.6383 82.7999 100.534 78.4999 103.683 76.4999C104.18 76.1666 105.573 76.1999 107.164 78.9999C108.755 81.7999 121.75 104.167 128.049 115C130.204 115.667 134.514 115.9 134.514 111.5V69.3848C134.514 68.9232 135.011 68 137 68H152C154 68 154.5 68.9232 154.5 69.3848V111.5C154.5 115.9 158.833 115.667 161 115C167.333 104.167 180.4 81.7999 182 78.9999C183.6 76.1999 185 76.1666 185.5 76.4999C188.667 78.4999 195.6 82.7999 198 83.9999C200.4 85.1999 200 86.8333 199.5 87.4999L165.5 146C183.833 135.333 221 113.7 223 112.5C225 111.3 226.167 111.667 226.5 112C228.5 115.5 232.8 123 234 125C235.2 127 234.5 128.167 234 128.5L199.5 148.5C198 149 195 150.7 195 153.5C195 156.3 197.59 157 198.886 157H241.5C243.1 157 243.5 158.593 243.5 159.389V174C243.5 175.6 242.167 176 241.5 176H198C197.333 176.167 195.8 176.9 195 178.5C194.2 180.1 195.667 182.167 196.5 183C207 189 228.8 201.4 232 203C235.2 204.6 235 207.333 234.5 208.5C232.833 211.333 229.2 217.5 228 219.5C226.8 221.5 224.833 221.333 224 221C208.333 211.667 175.5 193 171 190.5C166.454 187.975 165 185.667 165 184.5Z" fill="#ABC4FF"/>
</svg>
